# xmcd CD database file
#
# Track frame offsets:
#	150
#	15387
#	27041
#	47035
#	55295
#	72330
#	83396
#	93234
#	108864
#	122416
#
# Disc length: 1841 seconds
#
# Revision: 2
# Processed by: cddbd v1.5.2PL0 Copyright (c) Steve Scherf et al.
# Submitted via: CDex 1.79
#
DISCID=6a072f0a
DTITLE=Martina Fiserova and Brian Charette - Clearing Fields
DYEAR=2012
DGENRE=Blues
TTITLE0=I Thought About You
TTITLE1=My Favourite Things
TTITLE2=Don't Explain
TTITLE3=I Got Rhythm
TTITLE4=The Midnight Sun
TTITLE5=And How I Hope For Your Love
TTITLE6=Like Someone In Love
TTITLE7=Star Eyes
TTITLE8=How Deep Is The Ocean
TTITLE9=Song For Brian
EXTD=YEAR: 2012
EXTT0=
EXTT1=
EXTT2=
EXTT3=
EXTT4=
EXTT5=
EXTT6=
EXTT7=
EXTT8=
EXTT9=
PLAYORDER=
